<svg version="1.1" id="Layer_1" xmlns="http://www.w3.org/2000/svg" xmlns:xlink="http://www.w3.org/1999/xlink" x="0px" y="0px"
	 width="100%" viewBox="0 0 400 400" enable-background="new 0 0 400 400" xml:space="preserve">
<path fill="#1C141C" opacity="1.000000" stroke="none" 
	d="
M401.000000,62.000000 
	C401.000000,79.354225 401.000000,96.708458 400.548889,114.547913 
	C397.137665,115.223267 394.112457,115.089897 391.230652,115.669395 
	C384.803986,116.961723 383.369354,122.111557 387.740234,127.018028 
	C391.395844,131.121674 396.195282,130.963593 401.000000,131.000000 
	C401.000000,177.687561 401.000000,224.375122 400.531677,271.510010 
	C393.081726,271.949280 386.088715,271.709778 379.124176,272.050934 
	C376.467590,272.181122 372.782806,272.833344 371.446411,274.638916 
	C365.968567,282.040131 359.680115,288.441803 352.145111,293.681885 
	C351.631287,294.039215 351.283539,294.701355 350.980225,295.285004 
	C348.214722,300.606476 344.163177,304.545654 338.897125,307.477997 
	C334.184845,310.101959 331.909180,314.311737 332.058380,319.876617 
	C332.236542,326.521454 332.129181,333.174011 331.668488,339.853027 
	C328.027252,339.921875 324.863037,339.994690 321.698822,339.994934 
	C241.246780,340.001221 160.794739,340.002136 80.342705,339.992249 
	C76.846024,339.991821 73.349365,339.879700 69.861877,339.382935 
	C68.860214,330.784515 72.429390,325.242859 79.520485,321.464203 
	C85.033066,318.526672 87.422150,313.896698 87.089241,307.460114 
	C86.693764,299.813782 86.829460,292.127502 87.036690,284.466705 
	C87.178627,279.219452 85.033730,275.193054 80.715515,272.802399 
	C75.407532,269.863770 72.270073,265.081665 68.281990,260.889709 
	C61.024879,253.261627 52.772579,246.617020 46.083183,238.333771 
	C42.284798,233.630386 37.670502,229.550491 33.179565,225.457626 
	C31.122122,223.582565 27.855766,220.634613 26.237774,221.219025 
	C23.572958,222.181549 21.502987,225.425812 19.778919,228.093781 
	C18.899645,229.454437 19.177773,231.653137 19.172035,233.473785 
	C19.130539,246.640137 19.305040,259.809326 19.079098,272.971954 
	C18.980013,278.744202 21.021643,283.358856 25.865335,285.987488 
	C34.780334,290.825562 38.329979,297.925385 36.994015,307.837189 
	C36.167538,313.968964 38.716820,318.542450 44.127441,321.483948 
	C51.435970,325.457336 55.306435,331.268890 53.650505,339.873352 
	C35.782990,339.932709 18.391495,339.966370 1.000000,340.000000 
	C1.000000,247.645767 1.000000,155.291550 1.468657,62.468704 
	C13.654541,62.034119 25.371767,62.068142 37.065025,62.553459 
	C37.021923,64.002815 37.074215,65.008247 36.972095,65.997749 
	C36.295757,72.550926 38.299892,76.930840 45.141010,79.426064 
	C48.521423,80.659035 51.502247,84.216125 53.641201,87.407127 
	C61.972290,99.835907 78.806572,99.898499 87.280952,87.478310 
	C89.475212,84.262375 92.272400,81.072624 95.524658,79.044922 
	C102.054077,74.974007 105.347305,69.823090 104.410706,62.051254 
	C174.956360,62.062553 245.029800,62.091381 315.084778,62.553986 
	C315.993896,66.737495 315.686951,72.028526 318.081635,73.946671 
	C325.138824,79.599449 331.544189,85.630272 336.675507,93.054733 
	C337.128784,93.710594 337.999054,94.061562 338.586853,94.643806 
	C342.782013,98.799316 346.785126,103.168869 351.197449,107.077332 
	C353.806274,109.388229 356.846649,112.025955 360.056946,112.652924 
	C364.866699,113.592255 370.000549,113.016228 374.989014,112.854050 
	C379.602844,112.704048 381.940430,110.105888 381.962891,105.481857 
	C381.984741,100.986565 381.803986,96.482193 382.032532,91.998131 
	C382.294830,86.852821 380.005493,83.142426 375.653290,81.057480 
	C367.529724,77.165802 364.184967,70.861122 365.384827,62.082413 
	C377.572479,62.041729 389.286224,62.020866 401.000000,62.000000 
M70.856400,206.767975 
	C69.755836,215.308319 75.413506,220.479950 83.527969,218.423004 
	C85.351837,220.158295 87.175713,221.893585 88.699646,224.261902 
	C86.758514,227.585587 87.809357,230.393860 90.381195,232.750870 
	C92.086731,234.313950 93.894951,235.874588 95.911034,236.968552 
	C101.839012,240.185181 104.366554,244.964691 104.065376,251.714096 
	C103.753845,258.695862 103.963898,265.702850 104.013786,272.698334 
	C104.099411,284.703674 109.372520,289.904236 121.519020,289.983643 
	C127.681747,290.023956 133.883209,290.427551 139.998383,289.887695 
	C147.953995,289.185394 153.435318,292.217499 157.347198,298.959930 
	C160.738449,304.805054 165.803268,307.142822 172.733688,307.100372 
	C208.877365,306.878845 245.024094,306.857849 281.167328,307.112732 
	C288.557068,307.164886 293.681061,304.364105 297.261444,298.311951 
	C300.726746,292.454254 305.522675,289.871216 312.471832,289.804749 
	C317.303070,289.758606 323.799774,289.540863 326.607117,286.593903 
	C333.559662,279.295685 340.374542,271.926331 348.154572,265.484833 
	C348.398376,265.283020 348.472168,264.885345 348.702087,264.656006 
	C352.419647,260.948486 355.827850,256.831421 359.967468,253.674316 
	C364.096497,250.525299 366.975677,247.049347 367.178284,241.804504 
	C367.447510,234.834549 367.656525,227.859070 367.707825,220.884628 
	C367.784821,210.415146 367.703613,199.944504 367.687500,189.474350 
	C367.671997,179.388306 368.087036,169.297760 356.461670,164.117203 
	C351.683044,161.987701 349.767639,157.427307 349.993378,152.081451 
	C350.119659,149.090378 350.392975,145.997299 349.799744,143.114899 
	C349.223419,140.314667 348.221710,137.180527 346.364471,135.143311 
	C340.466553,128.673920 334.080353,122.649788 327.886658,116.449814 
	C325.274109,113.834618 322.453857,112.565956 318.574310,114.550797 
	C316.700836,112.714539 314.827332,110.878273 313.286530,108.461937 
	C315.191223,102.985138 311.175781,96.612816 304.803802,96.310104 
	C297.900024,95.982132 290.944519,96.742462 283.548889,96.565887 
	C282.030701,95.011322 280.512512,93.456764 279.150726,91.197495 
	C280.443848,86.899895 278.881683,83.264992 275.322998,81.294678 
	C272.141357,79.533134 268.259033,78.176704 264.672150,78.143959 
	C236.863403,77.890137 209.051315,77.994667 181.240265,78.002121 
	C171.581665,78.004707 161.916428,77.833435 152.266434,78.133606 
	C143.675613,78.400833 139.192520,83.820892 139.660233,92.641525 
	C138.087952,94.423416 136.515671,96.205299 134.289520,97.616814 
	C126.952606,97.325188 119.613251,96.822166 112.280701,96.907082 
	C110.671242,96.925713 108.566902,98.702339 107.579460,100.240204 
	C103.299088,106.906586 97.968903,112.392220 91.202980,116.524368 
	C90.252388,117.104927 89.606308,118.184669 88.820641,119.034607 
	C84.484146,123.725838 80.148079,128.417465 75.398003,132.601334 
	C73.579582,130.677322 71.761162,128.753296 70.180672,126.238121 
	C71.998940,120.179550 68.005730,114.234726 60.970798,113.383934 
	C56.392570,112.830261 51.665543,112.848434 47.067791,113.278999 
	C41.118069,113.836166 35.374454,121.262077 35.527370,127.334282 
	C33.985981,128.890930 32.444592,130.447586 30.185045,131.839890 
	C23.406231,130.826477 17.827854,135.125122 17.198170,142.169662 
	C16.858120,145.973923 16.439404,149.958954 17.206158,153.621704 
	C17.977518,157.306427 19.257061,161.840271 21.931627,163.979462 
	C28.205240,168.997284 34.134129,174.036957 38.589432,180.852234 
	C40.724335,184.118011 44.156666,185.725113 48.528229,183.408554 
	C50.383945,185.213120 52.239666,187.017685 53.756725,189.427200 
	C51.170280,196.599762 57.282398,202.457077 66.303108,201.484833 
	C67.873505,203.008682 69.443909,204.532532 70.856400,206.767975 
M34.472191,88.282249 
	C32.963985,85.954918 31.558241,81.800720 29.924644,81.709106 
	C27.162390,81.554184 23.868271,83.509392 21.548346,85.466927 
	C20.035013,86.743874 19.463068,89.541008 19.162725,91.751366 
	C18.762846,94.694244 19.175484,97.737350 18.989378,100.721825 
	C18.706665,105.255585 21.075842,108.372559 24.414597,110.772163 
	C25.489679,111.544838 27.857224,111.910271 28.779009,111.256744 
	C32.191730,108.837250 35.235382,105.943336 34.983505,101.117142 
	C34.775536,97.132332 34.720657,93.139542 34.472191,88.282249 
z"/>
<path fill="#000000" opacity="1.000000" stroke="none" 
	d="
M37.088993,62.102165 
	C25.371767,62.068142 13.654541,62.034119 1.468657,62.000046 
	C1.000000,41.683720 1.000000,21.367435 1.000004,1.053826 
	C134.333344,1.056498 267.666687,1.056498 401.000000,1.056498 
	C401.000000,21.096226 401.000000,41.079453 401.000000,61.531342 
	C389.286224,62.020866 377.572479,62.041729 364.923218,62.055695 
	C347.692871,62.072605 331.398071,62.096409 315.103241,62.120216 
	C245.029800,62.091381 174.956360,62.062553 103.946793,62.033165 
	C81.036766,62.055790 59.062881,62.078979 37.088993,62.102165 
z"/>
<path fill="#000000" opacity="1.000000" stroke="none" 
	d="
M69.852692,339.819641 
	C73.349365,339.879700 76.846024,339.991821 80.342705,339.992249 
	C160.794739,340.002136 241.246780,340.001221 321.698822,339.994934 
	C324.863037,339.994690 328.027252,339.921875 332.122681,339.894684 
	C337.992462,339.889221 342.931061,339.871948 348.347229,339.880646 
	C366.216522,339.937744 383.608276,339.968872 401.000000,340.000000 
	C401.000000,360.316284 401.000000,380.632568 401.000000,400.946167 
	C267.666656,400.943481 134.333313,400.943481 1.000000,400.943481 
	C1.000000,380.903748 1.000000,360.920532 1.000000,340.468658 
	C18.391495,339.966370 35.782990,339.932709 54.106762,339.909912 
	C59.976925,339.887054 64.914810,339.853333 69.852692,339.819641 
z"/>
<path fill="#3C243C" opacity="1.000000" stroke="none" 
	d="
M347.869629,339.854675 
	C342.931061,339.871948 337.992462,339.889221 332.599701,339.864868 
	C332.129181,333.174011 332.236542,326.521454 332.058380,319.876617 
	C331.909180,314.311737 334.184845,310.101959 338.897125,307.477997 
	C344.163177,304.545654 348.214722,300.606476 350.980225,295.285004 
	C351.283539,294.701355 351.631287,294.039215 352.145111,293.681885 
	C359.680115,288.441803 365.968567,282.040131 371.446411,274.638916 
	C372.782806,272.833344 376.467590,272.181122 379.124176,272.050934 
	C386.088715,271.709778 393.081726,271.949280 400.531677,271.978699 
	C401.000000,276.689240 401.000000,281.378510 400.552399,286.536011 
	C391.772827,285.989868 387.126892,290.427765 382.166199,296.752228 
	C375.147858,305.700104 366.923981,313.989594 358.041351,321.092316 
	C351.549530,326.283325 346.694519,331.087585 347.869629,339.854675 
z"/>
<path fill="#1C141C" opacity="1.000000" stroke="none" 
	d="
M348.347229,339.880646 
	C346.694519,331.087585 351.549530,326.283325 358.041351,321.092316 
	C366.923981,313.989594 375.147858,305.700104 382.166199,296.752228 
	C387.126892,290.427765 391.772827,285.989868 400.552399,287.002136 
	C401.000000,304.354218 401.000000,321.708466 401.000000,339.531342 
	C383.608276,339.968872 366.216522,339.937744 348.347229,339.880646 
z"/>
<path fill="#3B233B" opacity="1.000000" stroke="none" 
	d="
M401.000000,130.533142 
	C396.195282,130.963593 391.395844,131.121674 387.740234,127.018028 
	C383.369354,122.111557 384.803986,116.961723 391.230652,115.669395 
	C394.112457,115.089897 397.137665,115.223267 400.548889,115.016571 
	C401.000000,120.022095 401.000000,125.044189 401.000000,130.533142 
z"/>
<path fill="#1C0C0C" opacity="1.000000" stroke="none" 
	d="
M319.031830,115.032928 
	C322.453857,112.565956 325.274109,113.834618 327.886658,116.449814 
	C334.080353,122.649788 340.466553,128.673920 346.364471,135.143311 
	C348.221710,137.180527 349.223419,140.314667 349.799744,143.114899 
	C350.392975,145.997299 350.119659,149.090378 349.993378,152.081451 
	C349.767639,157.427307 351.683044,161.987701 356.461670,164.117203 
	C368.087036,169.297760 367.671997,179.388306 367.687500,189.474350 
	C367.703613,199.944504 367.784821,210.415146 367.707825,220.884628 
	C367.656525,227.859070 367.447510,234.834549 367.178284,241.804504 
	C366.975677,247.049347 364.096497,250.525299 359.967468,253.674316 
	C355.827850,256.831421 352.419647,260.948486 348.702087,264.656006 
	C348.472168,264.885345 348.398376,265.283020 348.154572,265.484833 
	C340.374542,271.926331 333.559662,279.295685 326.607117,286.593903 
	C323.799774,289.540863 317.303070,289.758606 312.471832,289.804749 
	C305.522675,289.871216 300.726746,292.454254 297.261444,298.311951 
	C293.681061,304.364105 288.557068,307.164886 281.167328,307.112732 
	C245.024094,306.857849 208.877365,306.878845 172.733688,307.100372 
	C165.803268,307.142822 160.738449,304.805054 157.347198,298.959930 
	C153.435318,292.217499 147.953995,289.185394 139.998383,289.887695 
	C133.883209,290.427551 127.681747,290.023956 121.519020,289.983643 
	C109.372520,289.904236 104.099411,284.703674 104.013786,272.698334 
	C103.963898,265.702850 103.753845,258.695862 104.065376,251.714096 
	C104.366554,244.964691 101.839012,240.185181 95.911034,236.968552 
	C93.894951,235.874588 92.086731,234.313950 90.381195,232.750870 
	C87.809357,230.393860 86.758514,227.585587 89.290909,224.012482 
	C96.519127,224.181992 103.152740,224.667816 109.794044,224.999588 
	C115.531120,225.286179 116.655739,226.306549 116.848618,232.229919 
	C116.989586,236.559402 116.851471,240.901611 117.099274,245.223160 
	C117.544968,252.995865 120.115440,256.445404 127.526283,258.569366 
	C131.501328,259.708649 133.941071,261.865784 134.831436,265.844269 
	C136.248322,272.175568 140.235886,275.667572 146.651031,276.183746 
	C151.948578,276.609985 157.265549,276.854156 162.578842,277.003967 
	C166.070633,277.102448 169.015686,278.116272 169.974365,281.701843 
	C172.416534,290.835815 178.842712,293.246155 187.436935,293.057800 
	C208.418457,292.597961 229.405716,292.391663 250.391220,292.126495 
	C257.465698,292.037109 262.601288,288.999207 265.158875,282.322876 
	C267.237488,276.896820 270.897217,274.856842 276.702087,274.900757 
	C286.007751,274.971252 295.328735,274.479828 304.624084,273.912170 
	C310.237244,273.569366 314.368134,270.653625 316.302673,265.184723 
	C317.974060,260.459717 321.391296,257.797668 325.725739,255.454681 
	C328.889954,253.744217 331.950287,250.894272 333.725098,247.790665 
	C336.168274,243.518341 338.992523,240.384369 343.560974,238.423920 
	C349.347504,235.940735 352.792419,231.437973 353.020050,224.893433 
	C353.355621,215.245361 353.720123,205.597870 353.975342,195.947571 
	C354.192230,187.747284 351.031616,181.698822 342.744507,179.157211 
	C338.800568,177.947632 337.260254,175.141556 337.217377,171.226059 
	C337.171722,167.060593 337.110626,162.894653 336.992157,158.730759 
	C336.723175,149.278305 334.810669,146.485367 325.748657,143.536652 
	C321.587006,142.182449 319.984528,139.770737 319.951019,135.470673 
	C319.897858,128.656113 319.362915,121.845314 319.031830,115.032928 
z"/>
<path fill="#3C243C" opacity="1.000000" stroke="none" 
	d="
M318.803070,114.791862 
	C319.362915,121.845314 319.897858,128.656113 319.951019,135.470673 
	C319.984528,139.770737 321.587006,142.182449 325.748657,143.536652 
	C334.810669,146.485367 336.723175,149.278305 336.992157,158.730759 
	C337.110626,162.894653 337.171722,167.060593 337.217377,171.226059 
	C337.260254,175.141556 338.800568,177.947632 342.744507,179.157211 
	C351.031616,181.698822 354.192230,187.747284 353.975342,195.947571 
	C353.720123,205.597870 353.355621,215.245361 353.020050,224.893433 
	C352.792419,231.437973 349.347504,235.940735 343.560974,238.423920 
	C338.992523,240.384369 336.168274,243.518341 333.725098,247.790665 
	C331.950287,250.894272 328.889954,253.744217 325.725739,255.454681 
	C321.391296,257.797668 317.974060,260.459717 316.302673,265.184723 
	C314.368134,270.653625 310.237244,273.569366 304.624084,273.912170 
	C295.328735,274.479828 286.007751,274.971252 276.702087,274.900757 
	C270.897217,274.856842 267.237488,276.896820 265.158875,282.322876 
	C262.601288,288.999207 257.465698,292.037109 250.391220,292.126495 
	C229.405716,292.391663 208.418457,292.597961 187.436935,293.057800 
	C178.842712,293.246155 172.416534,290.835815 169.974365,281.701843 
	C169.015686,278.116272 166.070633,277.102448 162.578842,277.003967 
	C157.265549,276.854156 151.948578,276.609985 146.651031,276.183746 
	C140.235886,275.667572 136.248322,272.175568 134.831436,265.844269 
	C133.941071,261.865784 131.501328,259.708649 127.526283,258.569366 
	C120.115440,256.445404 117.544968,252.995865 117.099274,245.223160 
	C116.851471,240.901611 116.989586,236.559402 116.848618,232.229919 
	C116.655739,226.306549 115.531120,225.286179 109.794044,224.999588 
	C103.152740,224.667816 96.519127,224.181992 89.440887,223.695953 
	C87.175713,221.893585 85.351837,220.158295 83.257576,217.791656 
	C81.766289,208.309937 80.558769,207.190063 71.014313,206.056366 
	C69.443909,204.532532 67.873505,203.008682 66.006378,200.864960 
	C63.699486,190.234299 63.134819,189.678940 54.095387,188.822250 
	C52.239666,187.017685 50.383945,185.213120 48.272392,182.746643 
	C47.675304,175.801056 47.033798,169.514725 47.089569,163.234573 
	C47.132736,158.373779 45.593010,155.634018 40.671806,154.210922 
	C33.430099,152.116821 30.097637,147.445786 30.079134,140.399002 
	C30.071789,137.601486 30.612183,134.802536 30.903202,132.004242 
	C32.444592,130.447586 33.985981,128.890930 36.169403,127.017502 
	C47.855206,126.743576 58.898972,126.786430 69.942741,126.829277 
	C71.761162,128.753296 73.579582,130.677322 75.646851,133.258820 
	C76.734192,141.924347 77.816795,142.917526 85.794571,142.986588 
	C86.958435,142.996658 88.123032,143.016891 89.286270,142.989273 
	C99.620712,142.744019 109.365524,143.374008 111.512245,156.620331 
	C111.660324,157.534058 113.316711,158.203323 114.271675,158.986282 
	C115.045700,158.022797 116.222794,157.162369 116.501480,156.072266 
	C116.945206,154.336594 116.861984,152.448486 116.876572,150.623840 
	C116.951065,141.313187 116.853180,131.999008 117.079628,122.692482 
	C117.234169,116.341080 119.831650,111.002457 126.399986,109.502083 
	C132.977112,107.999680 134.891479,103.894775 134.943390,97.987183 
	C136.515671,96.205299 138.087952,94.423416 140.262451,92.280289 
	C144.330994,91.613297 147.796860,91.047600 151.263672,91.041656 
	C189.201065,90.976639 227.138672,90.968063 265.076050,91.037582 
	C269.715973,91.046082 274.354919,91.600685 278.994324,91.902199 
	C280.512512,93.456764 282.030701,95.011322 283.855591,97.180298 
	C284.335846,98.605843 284.528900,99.413368 284.680054,100.228661 
	C286.039764,107.561989 286.491730,107.820671 294.096008,108.032501 
	C300.386444,108.207733 306.668243,108.693710 312.953857,109.042007 
	C314.827332,110.878273 316.700836,112.714539 318.803070,114.791862 
M142.112152,264.324158 
	C145.356796,269.044830 149.834122,270.787964 155.466232,270.072968 
	C157.433929,269.823151 159.475418,270.194031 161.456619,270.004089 
	C168.164749,269.361115 172.834229,272.795837 176.886383,277.516754 
	C178.184891,279.029572 179.104080,281.082550 180.702621,282.066986 
	C182.550659,283.205017 185.166626,284.348846 187.085892,283.908112 
	C197.012146,281.628784 206.976120,280.658508 217.160294,280.933075 
	C227.982544,281.224854 238.819977,280.906616 249.648315,281.046112 
	C253.143753,281.091125 254.656906,279.907684 255.131287,276.301727 
	C256.292938,267.471344 259.391724,264.807220 268.437592,264.036804 
	C269.430786,263.952209 270.435974,264.006836 271.435577,263.998932 
	C281.431030,263.920044 291.426392,263.817810 301.421997,263.777771 
	C304.341400,263.766083 306.833496,263.355286 307.006378,259.676849 
	C307.360565,252.141846 311.094604,247.561813 318.727325,246.670517 
	C322.337952,246.248886 324.431091,244.440033 324.831024,240.900467 
	C325.618225,233.933121 329.614685,230.072647 336.382355,229.410782 
	C340.834625,228.975372 342.509888,226.302261 342.853424,222.580856 
	C343.719269,213.201584 344.432831,203.801926 344.863434,194.394699 
	C344.939423,192.735275 343.811554,190.271484 342.457764,189.414902 
	C332.022278,182.812149 329.066925,173.004196 330.047852,161.487366 
	C330.432831,156.967606 328.894836,153.423721 325.004181,151.552353 
	C314.605408,146.550751 311.437469,138.215637 312.986389,127.396286 
	C313.079895,126.743340 313.011536,126.064697 312.993439,125.398697 
	C312.836700,119.624779 308.359253,115.163452 302.489685,115.020050 
	C299.325775,114.942749 296.134613,114.753418 292.998138,115.055328 
	C287.516571,115.582947 283.775482,112.918915 280.673553,108.921051 
	C279.458740,107.355324 278.509277,105.585846 277.403870,103.932602 
	C274.463562,99.535049 270.843079,97.079094 265.045227,97.114235 
	C228.057480,97.338387 191.067459,97.293465 154.078812,97.161118 
	C148.274155,97.140350 144.678711,99.604309 141.413879,104.232727 
	C138.545914,108.298546 134.665771,111.756851 130.826599,115.003265 
	C126.376678,118.766151 122.588615,122.277756 123.013435,129.014404 
	C123.568092,137.809875 123.197113,146.667694 123.117546,155.497726 
	C123.069565,160.822403 119.864449,164.837738 115.298019,165.789536 
	C112.857140,166.298309 109.559341,162.731384 106.666183,160.974335 
	C106.406517,160.816650 106.247597,160.457901 106.094444,160.165054 
	C101.992912,152.322083 95.991905,148.359528 86.752922,149.906021 
	C78.291718,151.322327 73.104401,146.793564 69.189827,139.736893 
	C67.741806,137.126617 65.157806,133.731781 62.700851,133.373032 
	C56.447079,132.459961 49.888206,132.463242 43.629322,133.352173 
	C41.220341,133.694305 38.566097,137.120193 37.454296,139.746628 
	C36.902023,141.051285 39.438305,143.835022 40.863144,145.735367 
	C41.620556,146.745544 42.919384,147.431137 44.091141,148.035950 
	C51.297291,151.755432 55.350704,157.231201 53.986885,165.699326 
	C52.550201,174.619843 55.926460,180.780609 64.147530,184.580719 
	C65.997612,185.435913 67.782318,187.139374 68.823303,188.907837 
	C72.172081,194.596786 76.179848,199.447388 82.115692,202.656387 
	C83.911682,203.627319 85.721458,205.315216 86.596207,207.123871 
	C91.287392,216.823563 99.137939,219.556305 109.156448,218.008850 
	C109.644600,217.933456 110.221420,217.844116 110.643822,218.025192 
	C113.715500,219.341949 117.173264,220.198517 119.721382,222.202179 
	C124.648354,226.076401 123.308044,232.021759 122.849434,237.120880 
	C122.182762,244.533310 125.916183,248.656525 131.309097,252.713959 
	C135.302567,255.718491 138.369492,259.954529 142.112152,264.324158 
z"/>
<path fill="#3C243C" opacity="1.000000" stroke="none" 
	d="
M69.861877,339.382935 
	C64.914810,339.853333 59.976925,339.887054 54.582779,339.884216 
	C55.306435,331.268890 51.435970,325.457336 44.127441,321.483948 
	C38.716820,318.542450 36.167538,313.968964 36.994015,307.837189 
	C38.329979,297.925385 34.780334,290.825562 25.865335,285.987488 
	C21.021643,283.358856 18.980013,278.744202 19.079098,272.971954 
	C19.305040,259.809326 19.130539,246.640137 19.172035,233.473785 
	C19.177773,231.653137 18.899645,229.454437 19.778919,228.093781 
	C21.502987,225.425812 23.572958,222.181549 26.237774,221.219025 
	C27.855766,220.634613 31.122122,223.582565 33.179565,225.457626 
	C37.670502,229.550491 42.284798,233.630386 46.083183,238.333771 
	C52.772579,246.617020 61.024879,253.261627 68.281990,260.889709 
	C72.270073,265.081665 75.407532,269.863770 80.715515,272.802399 
	C85.033730,275.193054 87.178627,279.219452 87.036690,284.466705 
	C86.829460,292.127502 86.693764,299.813782 87.089241,307.460114 
	C87.422150,313.896698 85.033066,318.526672 79.520485,321.464203 
	C72.429390,325.242859 68.860214,330.784515 69.861877,339.382935 
z"/>
<path fill="#3C243C" opacity="1.000000" stroke="none" 
	d="
M315.084778,62.553986 
	C331.398071,62.096409 347.692871,62.072605 364.449310,62.075516 
	C364.184967,70.861122 367.529724,77.165802 375.653290,81.057480 
	C380.005493,83.142426 382.294830,86.852821 382.032532,91.998131 
	C381.803986,96.482193 381.984741,100.986565 381.962891,105.481857 
	C381.940430,110.105888 379.602844,112.704048 374.989014,112.854050 
	C370.000549,113.016228 364.866699,113.592255 360.056946,112.652924 
	C356.846649,112.025955 353.806274,109.388229 351.197449,107.077332 
	C346.785126,103.168869 342.782013,98.799316 338.586853,94.643806 
	C337.999054,94.061562 337.128784,93.710594 336.675507,93.054733 
	C331.544189,85.630272 325.138824,79.599449 318.081635,73.946671 
	C315.686951,72.028526 315.993896,66.737495 315.084778,62.553986 
z"/>
<path fill="#1C0C0C" opacity="1.000000" stroke="none" 
	d="
M279.072510,91.549850 
	C274.354919,91.600685 269.715973,91.046082 265.076050,91.037582 
	C227.138672,90.968063 189.201065,90.976639 151.263672,91.041656 
	C147.796860,91.047600 144.330994,91.613297 140.466125,92.030693 
	C139.192520,83.820892 143.675613,78.400833 152.266434,78.133606 
	C161.916428,77.833435 171.581665,78.004707 181.240265,78.002121 
	C209.051315,77.994667 236.863403,77.890137 264.672150,78.143959 
	C268.259033,78.176704 272.141357,79.533134 275.322998,81.294678 
	C278.881683,83.264992 280.443848,86.899895 279.072510,91.549850 
z"/>
<path fill="#3C243C" opacity="1.000000" stroke="none" 
	d="
M37.065025,62.553459 
	C59.062881,62.078979 81.036766,62.055790 103.474571,62.050697 
	C105.347305,69.823090 102.054077,74.974007 95.524658,79.044922 
	C92.272400,81.072624 89.475212,84.262375 87.280952,87.478310 
	C78.806572,99.898499 61.972290,99.835907 53.641201,87.407127 
	C51.502247,84.216125 48.521423,80.659035 45.141010,79.426064 
	C38.299892,76.930840 36.295757,72.550926 36.972095,65.997749 
	C37.074215,65.008247 37.021923,64.002815 37.065025,62.553459 
z"/>
<path fill="#1C0C0C" opacity="1.000000" stroke="none" 
	d="
M134.616455,97.802002 
	C134.891479,103.894775 132.977112,107.999680 126.399986,109.502083 
	C119.831650,111.002457 117.234169,116.341080 117.079628,122.692482 
	C116.853180,131.999008 116.951065,141.313187 116.876572,150.623840 
	C116.861984,152.448486 116.945206,154.336594 116.501480,156.072266 
	C116.222794,157.162369 115.045700,158.022797 114.271675,158.986282 
	C113.316711,158.203323 111.660324,157.534058 111.512245,156.620331 
	C109.365524,143.374008 99.620712,142.744019 89.286270,142.989273 
	C88.123032,143.016891 86.958435,142.996658 85.794571,142.986588 
	C77.816795,142.917526 76.734192,141.924347 75.853775,133.512619 
	C80.148079,128.417465 84.484146,123.725838 88.820641,119.034607 
	C89.606308,118.184669 90.252388,117.104927 91.202980,116.524368 
	C97.968903,112.392220 103.299088,106.906586 107.579460,100.240204 
	C108.566902,98.702339 110.671242,96.925713 112.280701,96.907082 
	C119.613251,96.822166 126.952606,97.325188 134.616455,97.802002 
z"/>
<path fill="#1C0C0C" opacity="1.000000" stroke="none" 
	d="
M30.544125,131.922058 
	C30.612183,134.802536 30.071789,137.601486 30.079134,140.399002 
	C30.097637,147.445786 33.430099,152.116821 40.671806,154.210922 
	C45.593010,155.634018 47.132736,158.373779 47.089569,163.234573 
	C47.033798,169.514725 47.675304,175.801056 48.048920,182.507965 
	C44.156666,185.725113 40.724335,184.118011 38.589432,180.852234 
	C34.134129,174.036957 28.205240,168.997284 21.931627,163.979462 
	C19.257061,161.840271 17.977518,157.306427 17.206158,153.621704 
	C16.439404,149.958954 16.858120,145.973923 17.198170,142.169662 
	C17.827854,135.125122 23.406231,130.826477 30.544125,131.922058 
z"/>
<path fill="#3C243C" opacity="1.000000" stroke="none" 
	d="
M34.535065,88.716263 
	C34.720657,93.139542 34.775536,97.132332 34.983505,101.117142 
	C35.235382,105.943336 32.191730,108.837250 28.779009,111.256744 
	C27.857224,111.910271 25.489679,111.544838 24.414597,110.772163 
	C21.075842,108.372559 18.706665,105.255585 18.989378,100.721825 
	C19.175484,97.737350 18.762846,94.694244 19.162725,91.751366 
	C19.463068,89.541008 20.035013,86.743874 21.548346,85.466927 
	C23.868271,83.509392 27.162390,81.554184 29.924644,81.709106 
	C31.558241,81.800720 32.963985,85.954918 34.535065,88.716263 
z"/>
<path fill="#1C0C0C" opacity="1.000000" stroke="none" 
	d="
M70.061707,126.533699 
	C58.898972,126.786430 47.855206,126.743576 36.404743,126.785828 
	C35.374454,121.262077 41.118069,113.836166 47.067791,113.278999 
	C51.665543,112.848434 56.392570,112.830261 60.970798,113.383934 
	C68.005730,114.234726 71.998940,120.179550 70.061707,126.533699 
z"/>
<path fill="#1C0C0C" opacity="1.000000" stroke="none" 
	d="
M313.120178,108.751968 
	C306.668243,108.693710 300.386444,108.207733 294.096008,108.032501 
	C286.491730,107.820671 286.039764,107.561989 284.680054,100.228661 
	C284.528900,99.413368 284.335846,98.605843 284.086914,97.411438 
	C290.944519,96.742462 297.900024,95.982132 304.803802,96.310104 
	C311.175781,96.612816 315.191223,102.985138 313.120178,108.751968 
z"/>
<path fill="#1C0C0D" opacity="1.000000" stroke="none" 
	d="
M53.926056,189.124725 
	C63.134819,189.678940 63.699486,190.234299 65.776566,200.627594 
	C57.282398,202.457077 51.170280,196.599762 53.926056,189.124725 
z"/>
<path fill="#1C0C0C" opacity="1.000000" stroke="none" 
	d="
M70.935356,206.412170 
	C80.558769,207.190063 81.766289,208.309937 83.036072,217.553162 
	C75.413506,220.479950 69.755836,215.308319 70.935356,206.412170 
z"/>
<path fill="#D9282E" opacity="1.000000" stroke="none" 
	d="
M141.980652,263.983063 
	C138.369492,259.954529 135.302567,255.718491 131.309097,252.713959 
	C125.916183,248.656525 122.182762,244.533310 122.849434,237.120880 
	C123.308044,232.021759 124.648354,226.076401 119.721382,222.202179 
	C117.173264,220.198517 113.715500,219.341949 110.643822,218.025192 
	C110.221420,217.844116 109.644600,217.933456 109.156448,218.008850 
	C99.137939,219.556305 91.287392,216.823563 86.596207,207.123871 
	C85.721458,205.315216 83.911682,203.627319 82.115692,202.656387 
	C76.179848,199.447388 72.172081,194.596786 68.823303,188.907837 
	C67.782318,187.139374 65.997612,185.435913 64.147530,184.580719 
	C55.926460,180.780609 52.550201,174.619843 53.986885,165.699326 
	C55.350704,157.231201 51.297291,151.755432 44.091141,148.035950 
	C42.919384,147.431137 41.620556,146.745544 40.863144,145.735367 
	C39.438305,143.835022 36.902023,141.051285 37.454296,139.746628 
	C38.566097,137.120193 41.220341,133.694305 43.629322,133.352173 
	C49.888206,132.463242 56.447079,132.459961 62.700851,133.373032 
	C65.157806,133.731781 67.741806,137.126617 69.189827,139.736893 
	C73.104401,146.793564 78.291718,151.322327 86.752922,149.906021 
	C95.991905,148.359528 101.992912,152.322083 106.094444,160.165054 
	C106.247597,160.457901 106.406517,160.816650 106.666183,160.974335 
	C109.559341,162.731384 112.857140,166.298309 115.298019,165.789536 
	C119.864449,164.837738 123.069565,160.822403 123.117546,155.497726 
	C123.197113,146.667694 123.568092,137.809875 123.013435,129.014404 
	C122.588615,122.277756 126.376678,118.766151 130.826599,115.003265 
	C134.665771,111.756851 138.545914,108.298546 141.413879,104.232727 
	C144.678711,99.604309 148.274155,97.140350 154.078812,97.161118 
	C191.067459,97.293465 228.057480,97.338387 265.045227,97.114235 
	C270.843079,97.079094 274.463562,99.535049 277.403870,103.932602 
	C278.509277,105.585846 279.458740,107.355324 280.673553,108.921051 
	C283.775482,112.918915 287.516571,115.582947 292.998138,115.055328 
	C296.134613,114.753418 299.325775,114.942749 302.489685,115.020050 
	C308.359253,115.163452 312.836700,119.624779 312.993439,125.398697 
	C313.011536,126.064697 313.079895,126.743340 312.986389,127.396286 
	C311.437469,138.215637 314.605408,146.550751 325.004181,151.552353 
	C328.894836,153.423721 330.432831,156.967606 330.047852,161.487366 
	C329.066925,173.004196 332.022278,182.812149 342.457764,189.414902 
	C343.811554,190.271484 344.939423,192.735275 344.863434,194.394699 
	C344.432831,203.801926 343.719269,213.201584 342.853424,222.580856 
	C342.509888,226.302261 340.834625,228.975372 336.382355,229.410782 
	C329.614685,230.072647 325.618225,233.933121 324.831024,240.900467 
	C324.431091,244.440033 322.337952,246.248886 318.727325,246.670517 
	C311.094604,247.561813 307.360565,252.141846 307.006378,259.676849 
	C306.833496,263.355286 304.341400,263.766083 301.421997,263.777771 
	C291.426392,263.817810 281.431030,263.920044 271.435577,263.998932 
	C270.435974,264.006836 269.430786,263.952209 268.437592,264.036804 
	C259.391724,264.807220 256.292938,267.471344 255.131287,276.301727 
	C254.656906,279.907684 253.143753,281.091125 249.648315,281.046112 
	C238.819977,280.906616 227.982544,281.224854 217.160294,280.933075 
	C206.976120,280.658508 197.012146,281.628784 187.085892,283.908112 
	C185.166626,284.348846 182.550659,283.205017 180.702621,282.066986 
	C179.104080,281.082550 178.184891,279.029572 176.886383,277.516754 
	C172.834229,272.795837 168.164749,269.361115 161.456619,270.004089 
	C159.475418,270.194031 157.433929,269.823151 155.466232,270.072968 
	C149.834122,270.787964 145.356796,269.044830 141.980652,263.983063 
M160.203323,171.896393 
	C159.155960,176.339401 157.906403,180.746521 157.109512,185.234009 
	C155.969254,191.655319 158.842834,196.199463 163.826324,200.234146 
	C168.267883,203.830124 172.237350,208.144897 175.835861,212.609390 
	C179.654068,217.346375 183.979950,220.111374 190.229004,220.041885 
	C204.038452,219.888321 217.850937,220.030945 231.661911,219.978699 
	C240.088272,219.946823 244.976089,215.048828 244.999100,206.786469 
	C245.009308,203.125595 244.713882,199.436218 245.070999,195.810379 
	C245.621780,190.218216 242.691132,187.041260 238.620667,183.841324 
	C233.995026,180.204941 229.736740,175.993271 225.835831,171.575134 
	C222.331604,167.606247 218.740829,164.918747 213.101318,165.154907 
	C201.308121,165.648758 189.467453,165.340973 177.710037,166.217499 
	C171.877563,166.652313 165.074631,165.404327 160.203323,171.896393 
z"/>
<path fill="#E08814" opacity="1.000000" stroke="none" 
	d="
M160.452484,171.608826 
	C165.074631,165.404327 171.877563,166.652313 177.710037,166.217499 
	C189.467453,165.340973 201.308121,165.648758 213.101318,165.154907 
	C218.740829,164.918747 222.331604,167.606247 225.835831,171.575134 
	C229.736740,175.993271 233.995026,180.204941 238.620667,183.841324 
	C242.691132,187.041260 245.621780,190.218216 245.070999,195.810379 
	C244.713882,199.436218 245.009308,203.125595 244.999100,206.786469 
	C244.976089,215.048828 240.088272,219.946823 231.661911,219.978699 
	C217.850937,220.030945 204.038452,219.888321 190.229004,220.041885 
	C183.979950,220.111374 179.654068,217.346375 175.835861,212.609390 
	C172.237350,208.144897 168.267883,203.830124 163.826324,200.234146 
	C158.842834,196.199463 155.969254,191.655319 157.109512,185.234009 
	C157.906403,180.746521 159.155960,176.339401 160.452484,171.608826 
z"/>
</svg>